<?xml version="1.0" standalone="no"?>
<!DOCTYPE svg PUBLIC "-//W3C//DTD SVG 20010904//EN"
 "http://www.w3.org/TR/2001/REC-SVG-20010904/DTD/svg10.dtd">
<svg version="1.0" xmlns="http://www.w3.org/2000/svg"
 width="260.000000pt" height="260.000000pt" viewBox="0 0 260.000000 260.000000"
 preserveAspectRatio="xMidYMid meet">
<metadata>
Created by potrace 1.11, written by Peter Selinger 2001-2013
</metadata>
<g transform="translate(0.000000,260.000000) scale(0.100000,-0.100000)"
fill="#000000" stroke="none">
<path d="M260 1005 l0 -775 1135 0 1135 0 0 25 0 25 -200 0 -201 0 2 545 1
546 139 69 c145 72 162 79 154 58 -8 -22 11 -41 34 -33 13 4 21 15 21 29 0 13
5 38 11 55 15 43 7 50 -77 67 -54 12 -69 12 -76 2 -14 -23 -9 -37 17 -44 14
-3 25 -9 25 -13 0 -3 -80 -45 -178 -93 -97 -47 -302 -147 -455 -222 l-278
-136 -267 91 c-147 50 -366 124 -487 165 -121 41 -233 80 -250 88 -16 8 -56
24 -87 36 l-58 22 0 134 0 134 -30 0 -30 0 0 -775z m114 425 l46 -19 0 -566 0
-565 -50 0 -50 0 0 585 c0 322 2 585 4 585 2 0 25 -9 50 -20z m486 -735 l0
-155 -165 0 -165 0 0 155 0 155 165 0 165 0 0 -155z m580 0 l0 -155 -185 0
-185 0 0 155 0 155 185 0 185 0 0 -155z m560 0 l0 -155 -180 0 -180 0 0 155 0
155 180 0 180 0 0 -155z"/>
</g>
</svg>
