<?xml version="1.0" standalone="no"?>
<!DOCTYPE svg PUBLIC "-//W3C//DTD SVG 20010904//EN"
 "http://www.w3.org/TR/2001/REC-SVG-20010904/DTD/svg10.dtd">
<svg version="1.0" xmlns="http://www.w3.org/2000/svg"
 width="260.000000pt" height="260.000000pt" viewBox="0 0 260.000000 260.000000"
 preserveAspectRatio="xMidYMid meet">
<metadata>
Created by potrace 1.14, written by Peter Selinger 2001-2017
</metadata>
<g transform="translate(0.000000,260.000000) scale(0.100000,-0.100000)"
fill="#000000" stroke="none">
<path d="M141 1959 c-17 -17 -33 -40 -36 -52 -3 -12 -4 -290 -3 -617 l3 -595
22 -31 c49 -68 -24 -64 1173 -64 1197 0 1124 -4 1173 64 l22 31 3 595 c1 327
0 605 -3 617 -3 12 -18 35 -35 51 l-29 30 -366 -92 -365 -91 -747 93 c-412 51
-756 93 -765 92 -9 0 -30 -14 -47 -31z m604 -571 c45 -20 55 -55 55 -188 0
-188 -12 -200 -201 -200 -187 0 -199 12 -199 203 1 185 12 196 197 197 74 0
132 -5 148 -12z m700 0 c45 -20 55 -55 55 -188 0 -188 -12 -200 -201 -200
-187 0 -199 12 -199 203 1 185 12 196 197 197 74 0 132 -5 148 -12z m700 0
c45 -20 55 -55 55 -188 0 -188 -12 -200 -201 -200 -187 0 -199 12 -199 203 1
185 12 196 197 197 74 0 132 -5 148 -12z"/>
</g>
</svg>
